<svg xmlns="http://www.w3.org/2000/svg" width="1650.542" height="240" viewBox="0 0 1650.542 240"><path d="M1344.935 168.189c-4.965 0-9.37 1.86-13.22 5.565V151.55h-4.34v51.796h4.34v-4.717c3.85 3.74 8.255 5.601 13.22 5.601 4.994 0 9.241-1.75 12.742-5.279 3.51-3.51 5.27-7.757 5.27-12.714 0-5.002-1.76-9.25-5.27-12.77-3.501-3.518-7.748-5.278-12.742-5.278zm9.564 27.575c-2.635 2.607-5.823 3.915-9.564 3.915-3.73 0-6.919-1.308-9.563-3.915-1.934-1.963-3.16-4.183-3.657-6.661v-5.777c.497-2.506 1.723-4.726 3.657-6.661 2.644-2.644 5.832-3.962 9.563-3.962 3.74 0 6.929 1.318 9.564 3.962 2.644 2.644 3.961 5.832 3.961 9.572 0 3.732-1.317 6.91-3.961 9.527zm29.251-3.69l-9.775-21.079h-4.883l12.392 25.898-8.67 18.242h4.404l21.116-44.14h-4.809l-9.775 21.08zm80.323-111.367c-10.136-15.268-21.244-13.836-42.278-13.836h-6.086c-5.775 0-6.969 3.223-8.42 5.546a84920.156 84920.156 0 0 1-13.899 22.226c-2.323 3.718.615 8.942 4.756 8.942h9.566c5.132 0 14.01.827 17.967 5.252 3.672 4.103 3.47 16.286 3.47 22.777 0 0 0 69.985.01 71.73 0 0 41.974 10.53 41.974-17.499l.01-55.69c0-12.569 1.587-36.42-7.07-49.448z" fill-rule="evenodd" clip-rule="evenodd" fill="#dee2eb"/><path d="M1448.588 153.708h-2.167v10.484h7.188v-1.827h-5.021v-8.657zm5.992 3.348l2.112-1.524v-1.827h-2.112v3.35zm5.044 7.136h7.308v-1.827h-5.141v-2.552h4.37v-1.818h-4.37v-2.46h5.14v-1.827h-7.307v10.484zm13.194-8.747c1.101 0 1.652.642 1.882 1.487h2.194c-.395-2.194-2.01-3.314-4.086-3.314-1.22 0-2.221.413-2.983 1.157-1.13 1.065-1.102 2.368-1.102 4.177 0 1.808-.028 3.121 1.102 4.177.762.744 1.762 1.157 2.983 1.157 2.057 0 3.691-1.12 4.086-3.314h-2.194c-.23.835-.78 1.478-1.882 1.478-.579 0-1.075-.193-1.387-.533-.422-.45-.541-.945-.541-2.965s.119-2.525.541-2.966c.312-.33.808-.541 1.387-.541zm9.71-1.838c-1.258 0-2.231.422-3.002 1.156-1.12 1.065-1.093 2.387-1.093 4.187 0 1.808-.027 3.121 1.093 4.186.771.735 1.744 1.148 3.002 1.148 1.258 0 2.203-.413 2.993-1.148 1.12-1.065 1.111-2.378 1.111-4.186 0-1.8.009-3.122-1.111-4.187-.79-.734-1.735-1.156-2.993-1.156zm1.396 8.29c-.313.349-.8.55-1.396.55-.588 0-1.092-.201-1.405-.55-.413-.44-.523-.918-.523-2.947 0-2.01.11-2.506.523-2.947.313-.34.817-.56 1.405-.56.597 0 1.083.22 1.396.56.422.44.532.936.532 2.947 0 2.029-.11 2.506-.532 2.947zm7.118-8.19h-2.148v10.485h7.188v-1.827h-5.04v-8.657zm6.86 10.485h7.298v-1.827h-5.141v-2.552h4.379v-1.818h-4.38v-2.46h5.142v-1.827h-7.299v10.484zm20.055-9.485c-.716-.697-1.771-1-2.928-1h-4.003v10.484h4.003c1.157 0 2.212-.303 2.928-.991 1.25-1.185 1.12-2.709 1.12-4.297 0-1.56.13-3.011-1.12-4.196zm-1.505 7.024c-.367.422-.872.642-1.625.642h-1.643v-6.84h1.643c.753 0 1.258.221 1.625.653.404.477.468 1.138.468 2.717 0 1.598-.064 2.35-.468 2.828zm10.729-8.03v6.83c0 1.212-.753 1.919-1.928 1.919-1.166 0-1.92-.707-1.92-1.92v-6.83h-2.157v6.904c0 2.213 1.79 3.682 4.077 3.682 2.276 0 4.085-1.469 4.085-3.682V153.7h-2.157z" fill="#8d9ebc"/><path d="M1465.89 3.89c-13.991-5.187-27.992-5.187-41.983 0-5.187 13.983-5.187 27.983 0 41.975 13.991 5.187 27.992 5.187 41.984 0 5.177-13.992 5.177-27.992 0-41.975zm110.526 142.21c8.07 0 15.295-3.194 15.295-13.844 0-4.25-7.748-2.479-7.748-2.479 0 5.995-2.213 10.044-7.657 10.127-9.208.119-8.603-12.854-8.603-14.497 0-16.975 7.52-16.075 8.594-16.075 8.226 0 7.666 8.969 7.666 9.988 7.85 1.396 7.822-2.066 7.822-2.882-.01-8.98-5.582-13.533-15.663-13.533-13.156 0-16.92 11.852-16.92 22.355 0 18.15 11.76 20.84 17.214 20.84zm-73.916-7.27v-11.036h9.52c5.013 0 4.646-6.766 4.646-6.766h-14.157V110.35h13.211c5.013 0 4.563-6.767 4.563-6.767h-23.218c-2.865 0-2.69 2.525-2.69 2.525v33.978c0 6.225 6.417 5.509 6.417 5.509h16.14c5.004 0 4.646-6.767 4.646-6.767H1502.5zm28.212-1.388c-4.232-1.9-5.38 4.7-5.38 4.7 1.993 1.258 16.406 7.703 25.193 1.056 4.498-3.424 5.682-11.393 1.725-16.69-5.885-7.887-20.61-6.638-17.278-14.653.735-1.762 3.966-4.397 13.551-.771 4.333 1.478 5.37-4.737 5.37-4.737-5.15-2.764-21.005-6.96-26.201 2.708-1.974 3.682-3.617 11.228 4.746 15.479 4.949 2.515 15.773 5.141 14.056 11.246-1.175 4.27-7.822 5.334-15.782 1.662zm119.796 7.885s-13.064-40.653-13.404-41.718c-2.102-.496-3.892-.66-5.333-.66-1.442 0-3.214.164-5.325.66-.35 1.065-13.414 41.718-13.414 41.718s6.693 2.965 8.447-2.222c1.643-5.096 1.955-6.05 1.955-6.05s.23-1.139 1.735-1.139h13.22c1.488 0 1.736 1.139 1.736 1.139s.303.954 1.946 6.05c1.754 5.187 8.437 2.222 8.437 2.222zm-14.065-15.755h-9.337c-.761 0-1.303-.082-.826-1.515.533-1.634 5.334-17.278 5.334-17.278.055-.11.065-.193.157-.193.091 0 .1.083.156.193 0 0 4.8 15.644 5.343 17.278.477 1.433-.074 1.515-.827 1.515zm-189.972-25.987v42.188c.1.025 8.135 1.993 8.135-3.399v-38.789c-4.425-1.487-8.135 0-8.135 0zm0 42.195v-.007l-.009-.002.01.01zm14.239-42.183s-.44 6.757 4.563 6.757h5.894v35.42c.018 0 8.143 2.02 8.143-3.397v-32.032c9.135 0 2.433.01 5.867.01 5.021 0 4.563-6.767 4.563-6.767l-29.03.01zm146.963 38.777v-38.789c-4.416-1.487-8.116 0-8.116 0v42.188c.1.025 8.116 1.993 8.116-3.399zm-8.116 3.406v-.007l-.009-.002.01.01zm-64.251 18.416h2.02v-7.675h-2.02v7.675zm4.608-3.305h4.15v-1.79h-4.15v1.79zm11.85-1.51l-2.901-5.673h-2.13v10.484h2.157v-6.114l2.13 3.984h1.47l2.13-3.984v6.114h2.156v-10.484h-2.13l-2.882 5.673zm10.473-5.679l-4.04 10.494h2.26l.66-1.864h3.948l.661 1.864h2.258l-4.048-10.494h-1.699zm-.505 6.904l1.405-3.8 1.35 3.8h-2.755zm13.99-.472l-4.389-6.426h-1.937v10.484h2.167v-6.436l4.398 6.436h1.928v-10.484h-2.167v6.426zm7.617-6.432l-4.03 10.494h2.258l.68-1.864h3.938l.643 1.864h2.268l-4.05-10.494h-1.707zm-.486 6.904l1.395-3.8 1.359 3.8h-2.754zm11.371-5.157c1.102 0 1.744.541 1.992 1.533h2.185c-.303-1.772-1.606-3.37-4.177-3.37-1.258 0-2.213.423-2.993 1.157-1.12 1.065-1.092 2.378-1.092 4.186 0 1.81-.028 3.122 1.092 4.178.78.734 1.763 1.147 2.993 1.147 1.184 0 2.24-.321 3.122-1.193.78-.762 1.055-1.671 1.055-3.195v-1.533h-4.177v1.707h2.038v.404c0 .551-.128 1.02-.496 1.405-.358.376-.89.578-1.542.578-.597 0-1.083-.202-1.395-.541-.414-.441-.524-.937-.524-2.957 0-2.01.11-2.506.524-2.956.312-.33.798-.55 1.395-.55zm6.43 8.743h7.308v-1.827h-5.141v-2.552h4.38v-1.818h-4.38v-2.46h5.141v-1.827h-7.308v10.484zm14.51-4.81l-2.9-5.674h-2.13v10.484h2.157v-6.114l2.139 3.984h1.469l2.112-3.984v6.114h2.175v-10.484h-2.148l-2.874 5.673zm7.652 4.81h7.308v-1.827h-5.142v-2.552h4.38v-1.818h-4.38v-2.46h5.142v-1.827h-7.308v10.484zm15.793-4.058l-4.388-6.426h-1.937v10.484h2.175v-6.436l4.389 6.436h1.928v-10.484h-2.167v6.426zm3.983-6.436v1.836h2.892v8.657h2.167v-8.657h2.891v-1.836h-7.95zm-107.203-.166c-.23.616-.23 1.24 0 1.846.606.238 1.23.238 1.845 0a2.66 2.66 0 0 0 0-1.846 2.658 2.658 0 0 0-1.845 0z" fill-rule="evenodd" clip-rule="evenodd" fill="#cf122d"/><path d="M194.919 105.745v47.705m-19.587-39.46c-16.24 7.432-27.517 23.811-27.517 42.843 0 26.011 21.084 47.105 47.104 47.105s47.104-21.094 47.104-47.105c0-19.041-11.295-35.43-27.554-42.852" fill="none" stroke="#cf122d" stroke-width="15.729" stroke-linejoin="round" stroke-miterlimit="10"/><path d="M406.952 86.24l-.005-.004c-1.187-1.167-2.546-2.09-4.04-2.706-1.491-.618-3.106-.92-4.765-.918-1.663-.002-3.281.3-4.776.917-1.496.615-2.857 1.541-4.043 2.712-1.195 1.175-2.14 2.53-2.768 4.025-.63 1.493-.936 3.112-.934 4.774-.001 1.684.301 3.32.93 4.83.625 1.509 1.572 2.878 2.774 4.055 1.184 1.168 2.542 2.095 4.037 2.713 1.494.62 3.113.925 4.78.924 1.663.001 3.279-.305 4.77-.925 1.493-.618 2.85-1.544 4.035-2.71 1.204-1.178 2.151-2.547 2.777-4.057.629-1.51.931-3.146.93-4.83.001-1.662-.304-3.281-.934-4.774-.628-1.495-1.574-2.85-2.768-4.025zm-17.467 121.14h17.212v-94.506h-17.212v94.507zm-41.76-89.92c-4.24-3.458-8.73-6.212-13.461-8.224-6.422-2.732-13.279-4.098-20.485-4.097-7.162-.001-13.875 1.273-20.062 3.84-6.189 2.564-11.838 6.416-16.907 11.487-5.072 5.075-8.925 10.733-11.492 16.937-2.569 6.202-3.845 12.935-3.843 20.125-.002 7.158 1.275 13.869 3.844 20.056 2.567 6.188 6.42 11.839 11.49 16.912h.001c5.07 5.072 10.718 8.923 16.907 11.487 6.187 2.567 12.9 3.841 20.062 3.84 7.206.002 14.063-1.365 20.485-4.097 4.732-2.012 9.22-4.765 13.46-8.223v9.87h17.214V59.238h-17.213v58.222zm0 47.231c-1.255 6.43-4.326 12.122-9.422 17.283-3.416 3.39-7.134 5.888-11.193 7.558-4.063 1.669-8.483 2.513-13.33 2.514-4.854-.002-9.272-.845-13.337-2.514-4.064-1.671-7.788-4.172-11.217-7.57h-.001c-3.425-3.392-5.943-7.09-7.626-11.134-1.68-4.047-2.53-8.455-2.532-13.3.001-4.841.851-9.255 2.533-13.319 1.684-4.062 4.206-7.788 7.634-11.218 3.43-3.428 7.154-5.95 11.216-7.634 4.063-1.681 8.479-2.531 13.33-2.533 4.845.002 9.261.852 13.323 2.533 4.061 1.684 7.781 4.205 11.201 7.632l.004.004c5.088 5.092 8.16 10.786 9.417 17.276v14.422zm41.598-78.45zm225.158 31.244c-4.242-3.441-8.733-6.18-13.468-8.179-6.422-2.715-13.279-4.071-20.486-4.07-7.152 0-13.862 1.268-20.049 3.826-6.188 2.556-11.84 6.395-16.91 11.452-5.076 5.06-8.93 10.709-11.497 16.905-2.568 6.195-3.841 12.925-3.84 20.113-.001 7.158 1.273 13.869 3.84 20.056 2.566 6.189 6.42 11.84 11.495 16.913l.001.001c5.07 5.067 10.72 8.915 16.909 11.478 6.187 2.566 12.897 3.84 20.05 3.838 7.19.002 13.93-1.274 20.142-3.848a49.489 49.489 0 0 0 8.96-4.856c-1.43 1.89-3.228 3.938-5.416 6.124h-.001c-3.426 3.43-7.144 5.951-11.191 7.635-4.049 1.681-8.44 2.53-13.252 2.532-4.84-.001-9.254-.851-13.318-2.533-4.062-1.684-7.788-4.206-11.218-7.634-.86-.86-2.018-2.14-3.43-3.807l-1.174-1.384-17.172 6.133 2.062 2.833c2.687 3.692 5.033 6.605 7.108 8.762l.02.02.021.022c5.089 5.051 10.761 8.89 16.972 11.445 6.21 2.558 12.946 3.83 20.13 3.828 7.16.001 13.869-1.27 20.048-3.83 6.18-2.557 11.818-6.397 16.874-11.45l.002-.001c4.958-4.961 8.728-10.482 11.24-16.522 2.513-6.039 3.763-12.585 3.761-19.56v-70.855h-17.213v4.613zm-.092 47.837c-1.377 6.251-4.428 11.744-9.327 16.654v.001c-3.425 3.427-7.148 5.949-11.21 7.633-4.063 1.682-8.48 2.531-13.325 2.533-4.847-.002-9.265-.85-13.329-2.525-4.063-1.678-7.786-4.19-11.21-7.6-3.423-3.41-5.944-7.122-7.63-11.176-1.681-4.054-2.533-8.465-2.535-13.31.002-4.845.854-9.26 2.537-13.326 1.685-4.064 4.208-7.79 7.632-11.22h-.001c3.424-3.422 7.147-5.942 11.21-7.625 4.063-1.68 8.48-2.53 13.326-2.532 4.845.001 9.262.851 13.325 2.532 4.063 1.683 7.786 4.203 11.21 7.625 4.963 4.973 8.01 10.533 9.327 16.835v15.5zm-498.512 10.515c-6.02 5.352-12.36 9.323-19.042 11.966-6.682 2.641-13.714 3.961-21.163 3.963-8.08-.002-15.499-1.429-22.336-4.264-6.835-2.839-13.101-7.092-18.838-12.827-5.733-5.739-9.986-12.022-12.825-18.89-2.836-6.87-4.264-14.34-4.266-22.487.002-8.108 1.43-15.552 4.266-22.404 2.838-6.85 7.09-13.122 12.824-18.853l.002-.002C40.236 86.3 46.5 82.045 53.337 79.206c6.836-2.837 14.255-4.264 22.335-4.265 7.449.001 14.48 1.321 21.163 3.963 6.682 2.643 13.022 6.614 19.042 11.966l1.769 1.573 12.81-11.75-2.128-1.931c-7.707-6.996-15.972-12.29-24.769-15.824-8.795-3.535-18.116-5.304-27.887-5.303-10.392-.001-20.1 1.841-29.044 5.547-8.945 3.704-17.114 9.265-24.462 16.62-7.355 7.343-12.916 15.512-16.62 24.456C1.842 113.203 0 122.91 0 133.298c-.001 10.428 1.84 20.156 5.547 29.109 3.703 8.954 9.266 17.12 16.622 24.454 7.347 7.336 15.516 12.885 24.46 16.581 8.945 3.698 18.651 5.538 29.043 5.537 9.772.001 19.095-1.775 27.891-5.328 8.798-3.55 17.063-8.871 24.77-15.905l2.142-1.955-12.85-11.51-1.748 1.556zm388.766-45.078c-1.851-4.537-4.592-8.629-8.166-12.22l-.002-.001c-3.589-3.607-7.754-6.346-12.422-8.157-4.668-1.813-9.824-2.7-15.41-2.7-5.22.001-9.896.672-14.016 2.073a28.615 28.615 0 0 0-6.443 3.113h-16.843v94.506h17.214v-69.82c.917-1.965 2.483-4.133 4.764-6.423 2.205-2.112 4.553-3.653 7.08-4.683 2.534-1.03 5.257-1.55 8.245-1.552 2.989.001 5.71.528 8.24 1.57 2.53 1.045 4.879 2.61 7.083 4.764l.006.005c2.2 2.138 3.794 4.437 4.859 6.937 1.062 2.5 1.6 5.215 1.602 8.227v60.975h17.12v-61.771c-.096-5.339-1.058-10.307-2.911-14.843zm673.236-1.773V112.11h-8.484v92.55h8.484V156.88c.314-11.183 4.492-20.767 12.532-28.752 5.712-5.712 11.248-8.697 16.58-8.947v-9.242c-7.846.379-15.517 4.316-22.994 11.784-2.329 2.329-4.362 4.741-6.118 7.264zm-86.371-24.085c-14.261 0-26.451 5.055-36.572 15.176-10.11 10.11-15.166 22.338-15.166 36.654 0 14.27 5.055 26.451 15.166 36.571 10.12 10.12 22.31 15.176 36.572 15.176 14.325 0 26.534-5.056 36.617-15.176 10.083-10.12 15.13-22.301 15.13-36.571 0-14.316-5.047-26.544-15.13-36.654-10.083-10.12-22.292-15.176-36.617-15.176zm30.258 82.043c-8.364 8.317-18.447 12.486-30.258 12.486-11.812 0-21.895-4.169-30.25-12.486-8.364-8.328-12.542-18.392-12.542-30.213 0-11.811 4.178-21.895 12.542-30.25 8.355-8.354 18.438-12.541 30.25-12.541 11.81 0 21.894 4.187 30.258 12.541 8.355 8.355 12.533 18.439 12.533 30.25 0 11.82-4.178 21.885-12.533 30.213zm188.333-74.828h-9.51l-30.73 66.34-30.721-66.34h-9.621l36.1 75.49L1240.643 240h8.29l20.925-43.632v.101l40.24-84.353zm-389.141.657c11.811 0 21.894 4.14 30.259 12.44a66.712 66.712 0 0 1 3.013 3.391l8.946-3.3c-1.627-2.199-3.484-4.334-5.555-6.404-10.11-10.12-22.338-15.176-36.663-15.176-14.26 0-26.442 5.056-36.571 15.176-10.111 10.111-15.167 22.301-15.167 36.571 0 14.316 5.056 26.544 15.167 36.645 10.129 10.13 22.31 15.195 36.57 15.195 14.326 0 26.553-5.065 36.664-15.195a53.253 53.253 0 0 0 5.555-6.488l-8.946-3.207a45.654 45.654 0 0 1-3.013 3.29c-8.365 8.365-18.448 12.542-30.26 12.542-11.746 0-21.792-4.177-30.156-12.541-8.365-8.346-12.533-18.43-12.533-30.24 0-11.821 4.168-21.895 12.533-30.213 8.364-8.328 18.41-12.486 30.157-12.486zm-82.844 12.44a62.778 62.778 0 0 0-5.37-6.312c-10.12-10.12-22.338-15.176-36.663-15.176-14.27 0-26.451 5.056-36.562 15.176-10.12 10.11-15.176 22.338-15.176 36.654 0 14.27 5.055 26.451 15.176 36.572 10.11 10.12 22.292 15.175 36.562 15.175 14.325 0 26.543-5.055 36.663-15.175a62.787 62.787 0 0 0 5.37-6.313v18.845h8.484v-92.55h-8.484v13.104zm0 38.734c-1.571 8.235-5.5 15.49-11.775 21.775-8.364 8.355-18.447 12.532-30.258 12.532s-21.895-4.168-30.26-12.495c-8.345-8.318-12.522-18.383-12.522-30.204 0-11.811 4.177-21.894 12.523-30.25 8.364-8.354 18.447-12.54 30.259-12.54s21.894 4.186 30.258 12.54c6.276 6.276 10.204 13.568 11.775 21.868v16.774zm169.364-91.236h-8.484v39.399h-18.845v8.484h18.845v84.067h8.484v-84.067h18.854v-8.484h-18.854v-39.4zM659.05 204.66h8.485v-71.156h57.486v-8.484h-57.486V62.35h57.486v-8.485h-65.97V204.66z" fill="#363535"/></svg>